<?xml version="1.0" standalone="no"?>
<!DOCTYPE svg PUBLIC "-//W3C//DTD SVG 20010904//EN"
 "http://www.w3.org/TR/2001/REC-SVG-20010904/DTD/svg10.dtd">
<svg version="1.0" xmlns="http://www.w3.org/2000/svg"
 width="502.000000pt" height="502.000000pt" viewBox="0 0 502.000000 502.000000"
 preserveAspectRatio="xMidYMid meet">
<metadata>
Created by potrace 1.11, written by Peter Selinger 2001-2013
</metadata>
<g transform="translate(0.000000,502.000000) scale(0.100000,-0.100000)"
fill="#000000" stroke="none">
<path d="M2360 4839 c-158 -14 -214 -20 -220 -24 -4 -2 -21 -7 -38 -10 -207
-36 -433 -115 -642 -223 -257 -133 -541 -365 -716 -583 -32 -41 -62 -76 -65
-79 -11 -8 -129 -189 -129 -196 0 -4 -6 -15 -14 -23 -38 -42 -162 -317 -201
-441 -55 -180 -58 -195 -90 -375 -18 -108 -22 -167 -22 -355 0 -201 2 -242 27
-388 48 -280 152 -569 281 -778 21 -36 39 -67 39 -70 0 -2 5 -10 10 -17 6 -7
36 -48 67 -92 130 -186 280 -341 500 -516 24 -18 218 -146 244 -160 64 -34
242 -121 252 -123 12 -3 22 -7 99 -39 67 -28 306 -91 402 -107 227 -36 595
-34 801 4 150 28 271 63 415 119 220 86 324 143 565 311 101 70 268 230 370
353 31 38 64 77 74 88 10 11 31 40 47 65 16 25 33 50 37 55 32 41 101 160 153
265 53 106 139 320 149 370 2 8 12 51 23 95 22 85 37 168 47 250 3 28 8 66 11
85 10 67 13 356 4 425 -35 266 -34 261 -60 361 -12 43 -22 86 -25 95 -30 132
-197 499 -260 575 -5 7 -23 35 -40 63 -16 28 -33 51 -37 51 -5 0 -8 7 -8 15 0
7 -6 18 -13 22 -7 4 -24 24 -37 43 -57 83 -252 283 -365 375 -83 67 -235 173
-316 219 -104 59 -313 154 -379 171 -8 3 -41 13 -73 24 -56 20 -107 33 -252
65 -161 35 -431 51 -615 35z m418 -180 c26 -4 61 -10 77 -12 17 -3 50 -8 75
-12 225 -34 532 -156 759 -302 150 -97 359 -277 458 -395 83 -100 123 -154
177 -238 80 -123 78 -121 126 -220 23 -47 48 -97 56 -112 8 -16 12 -28 8 -28
-3 0 -1 -6 5 -13 29 -36 111 -328 126 -452 3 -22 10 -67 16 -100 12 -64 16
-393 5 -460 -25 -163 -49 -295 -56 -320 -49 -159 -101 -299 -151 -404 -34 -69
-65 -127 -70 -129 -5 -2 -9 -8 -9 -14 0 -29 -168 -259 -269 -368 l-60 -65 -93
97 c-51 53 -158 163 -238 246 -80 82 -231 239 -337 348 -105 109 -238 247
-295 305 -90 94 -205 213 -563 583 -49 52 -183 190 -297 307 -359 371 -408
421 -512 529 -350 364 -604 626 -624 645 l-23 21 50 43 c28 23 72 58 98 78 27
20 50 39 53 43 3 4 39 29 80 56 230 150 445 243 698 300 64 14 74 16 197 35
39 6 77 12 85 13 34 7 405 2 448 -5z"/>
</g>
</svg>
