<?xml version="1.0" standalone="no"?>
<!DOCTYPE svg PUBLIC "-//W3C//DTD SVG 20010904//EN"
 "http://www.w3.org/TR/2001/REC-SVG-20010904/DTD/svg10.dtd">
<svg version="1.0" xmlns="http://www.w3.org/2000/svg"
 width="700.000000pt" height="700.000000pt" viewBox="0 0 700.000000 700.000000"
 preserveAspectRatio="xMidYMid meet">
<metadata>
Created by potrace 1.11, written by Peter Selinger 2001-2013
</metadata>
<g transform="translate(0.000000,700.000000) scale(0.100000,-0.100000)"
fill="#000000" stroke="none">
<path d="M3283 6689 c-1199 -81 -2263 -836 -2731 -1939 -336 -792 -336 -1708
0 -2500 270 -636 762 -1189 1363 -1532 633 -361 1384 -496 2103 -377 781 129
1464 527 1967 1148 894 1103 950 2667 138 3838 -495 714 -1290 1209 -2143
1333 -250 36 -460 45 -697 29z m610 -493 c644 -105 1189 -393 1608 -852 387
-423 613 -902 701 -1489 18 -122 18 -588 0 -710 -75 -496 -249 -917 -536
-1295 -76 -100 -218 -258 -233 -259 -6 -1 -812 826 -1789 1837 -978 1010
-1828 1888 -1889 1951 l-110 113 60 54 c379 344 923 590 1440 653 50 6 104 13
120 15 75 10 535 -3 628 -18z"/>
</g>
</svg>
