<svg id="svg" version="1.1" xmlns="http://www.w3.org/2000/svg" xmlns:xlink="http://www.w3.org/1999/xlink" width="400" height="400" viewBox="0, 0, 400,400"><g id="svgg"><path id="path0" d="M191.250 0.385 C 145.230 2.831,101.989 20.123,68.836 49.337 C 66.082 51.764,63.560 53.750,63.232 53.750 C 62.263 53.750,49.825 67.032,44.032 74.254 C -29.157 165.493,-9.207 300.161,87.188 365.570 C 141.073 402.134,209.426 410.271,270.938 387.444 C 294.805 378.587,330.679 355.488,340.488 342.663 C 341.423 341.441,344.679 337.740,347.724 334.439 C 398.690 279.199,413.674 197.360,385.783 126.563 C 354.795 47.900,274.698 -4.052,191.250 0.385 M225.000 31.523 C 334.137 48.638,398.520 160.918,357.982 263.438 C 350.735 281.767,339.018 300.155,324.174 316.495 L 320.829 320.178 207.825 203.370 C 145.673 139.126,92.414 84.110,89.472 81.111 L 84.124 75.660 85.656 74.012 C 103.325 55.001,143.802 35.869,175.313 31.635 C 179.438 31.081,183.656 30.512,184.688 30.371 C 189.530 29.710,218.767 30.545,225.000 31.523 " stroke="none" fill="#C16200" fill-rule="evenodd"></path></g></svg>