<svg id="svg" version="1.1" xmlns="http://www.w3.org/2000/svg" xmlns:xlink="http://www.w3.org/1999/xlink" width="400" height="100" viewBox="0, 0, 400,100"><g id="svgg"><path id="path0" d="M43.333 18.658 C 20.035 22.239,8.376 48.533,21.417 68.083 C 34.831 88.193,65.283 86.574,76.309 65.167 C 88.295 41.895,69.020 14.711,43.333 18.658 M53.526 23.652 C 73.983 28.078,82.239 53.218,68.240 68.455 L 67.357 69.417 65.852 67.917 C 65.025 67.092,56.507 58.317,46.923 48.417 L 29.498 30.417 30.374 29.611 C 33.314 26.909,38.666 24.345,42.917 23.603 C 43.742 23.459,44.604 23.307,44.833 23.266 C 46.030 23.052,51.972 23.316,53.526 23.652 M152.667 29.917 L 152.667 32.167 154.917 32.167 L 157.167 32.167 157.167 29.917 L 157.167 27.667 154.917 27.667 L 152.667 27.667 152.667 29.917 M257.500 32.333 L 257.500 35.833 254.750 35.833 L 252.000 35.833 252.000 37.750 L 252.000 39.667 254.750 39.667 L 257.500 39.667 257.503 46.208 C 257.507 56.059,257.799 57.696,259.889 59.624 C 261.688 61.281,265.863 62.098,268.917 61.390 L 269.583 61.236 269.630 59.232 L 269.676 57.229 268.380 57.376 C 265.062 57.751,262.963 56.869,262.357 54.846 C 262.227 54.413,262.167 51.906,262.167 46.939 L 262.167 39.667 265.917 39.667 L 269.667 39.667 269.667 37.750 L 269.667 35.833 265.917 35.833 L 262.167 35.833 262.167 32.333 L 262.167 28.833 259.833 28.833 L 257.500 28.833 257.500 32.333 M113.830 35.319 C 111.661 35.623,109.893 36.579,108.292 38.314 L 107.333 39.352 107.333 37.593 L 107.333 35.833 105.333 35.833 L 103.333 35.833 103.333 48.500 L 103.333 61.167 105.583 61.167 L 107.833 61.167 107.833 53.848 C 107.833 44.455,108.014 43.391,109.941 41.436 C 111.777 39.574,115.666 38.876,118.375 39.923 C 118.644 40.027,118.667 39.864,118.667 37.871 L 118.667 35.706 117.875 35.505 C 116.839 35.242,114.983 35.157,113.830 35.319 M207.194 35.342 C 200.689 36.507,197.247 41.149,197.252 48.750 C 197.254 52.244,197.414 53.027,198.627 55.500 C 202.474 63.339,214.443 64.169,219.514 56.948 C 219.965 56.305,220.315 55.760,220.292 55.736 C 220.214 55.658,215.937 53.833,215.832 53.833 C 215.775 53.833,215.562 54.128,215.360 54.488 C 214.157 56.629,211.037 57.941,208.208 57.496 C 204.743 56.951,202.538 54.539,202.079 50.792 L 201.962 49.833 211.814 49.833 L 221.667 49.833 221.663 48.625 C 221.639 39.770,215.245 33.900,207.194 35.342 M313.996 35.319 C 311.616 35.653,309.437 36.921,307.956 38.833 L 307.504 39.417 307.502 37.625 L 307.500 35.833 305.500 35.833 L 303.500 35.833 303.500 48.500 L 303.500 61.167 305.740 61.167 L 307.980 61.167 308.039 53.208 C 308.110 43.784,308.179 43.385,310.055 41.455 C 311.864 39.593,315.834 38.877,318.542 39.923 C 318.810 40.027,318.833 39.864,318.833 37.871 L 318.833 35.706 318.042 35.505 C 317.006 35.242,315.150 35.157,313.996 35.319 M331.361 35.342 C 323.299 36.786,318.989 45.799,322.263 54.368 C 325.821 63.680,339.308 64.614,344.382 55.900 C 344.480 55.732,340.059 53.696,339.939 53.854 C 339.913 53.888,339.724 54.195,339.520 54.534 C 336.012 60.369,326.167 57.232,326.167 50.281 L 326.167 49.833 336.026 49.833 L 345.885 49.833 345.776 47.792 C 345.322 39.266,339.161 33.945,331.361 35.342 M357.250 35.271 C 357.067 35.307,356.504 35.418,356.000 35.517 C 349.099 36.875,347.443 45.088,353.443 48.201 C 354.775 48.892,355.227 49.043,359.330 50.170 C 363.895 51.424,364.985 52.023,365.492 53.558 C 366.282 55.952,363.483 57.683,359.185 57.459 C 355.797 57.281,353.883 55.791,353.099 52.718 C 352.987 52.277,352.841 51.926,352.776 51.938 C 348.524 52.704,348.349 52.853,349.183 55.015 C 351.022 59.784,354.145 61.742,359.917 61.746 C 366.053 61.750,369.554 59.502,370.167 55.163 C 370.790 50.756,368.179 48.183,361.096 46.225 C 354.809 44.487,353.522 43.553,354.583 41.500 C 356.296 38.188,363.542 39.144,365.315 42.915 L 365.649 43.625 366.949 43.307 C 367.665 43.132,368.644 42.906,369.125 42.805 C 370.140 42.591,370.174 42.479,369.587 41.310 C 367.415 36.984,362.002 34.335,357.250 35.271 M132.060 35.664 C 130.639 36.036,129.396 36.636,128.208 37.524 L 127.333 38.177 127.333 37.005 L 127.333 35.833 125.250 35.833 L 123.167 35.833 123.167 48.500 L 123.167 61.167 125.491 61.167 L 127.816 61.167 127.870 53.208 C 127.932 44.328,127.956 44.131,129.191 42.266 C 131.655 38.545,138.081 38.902,140.101 42.872 C 140.992 44.622,141.043 45.154,141.122 53.458 L 141.195 61.167 143.441 61.167 L 145.686 61.167 145.627 52.708 C 145.571 44.627,145.552 44.192,145.206 42.950 C 143.616 37.257,137.954 34.118,132.060 35.664 M235.560 35.664 C 234.139 36.036,232.896 36.636,231.708 37.524 L 230.833 38.177 230.833 37.005 L 230.833 35.833 228.750 35.833 L 226.667 35.833 226.667 48.500 L 226.667 61.167 228.991 61.167 L 231.316 61.167 231.370 53.208 C 231.432 44.328,231.456 44.131,232.691 42.266 C 235.155 38.545,241.581 38.902,243.601 42.872 C 244.492 44.622,244.543 45.154,244.622 53.458 L 244.695 61.167 246.941 61.167 L 249.186 61.167 249.127 52.708 C 249.071 44.627,249.052 44.192,248.706 42.950 C 247.116 37.257,241.454 34.118,235.560 35.664 M152.665 49.958 C 152.664 64.040,152.608 65.652,152.082 66.669 C 151.560 67.678,150.364 68.458,149.292 68.487 L 148.833 68.500 148.833 70.833 L 148.833 73.167 149.342 73.167 C 152.035 73.167,154.887 71.323,156.144 68.772 C 157.143 66.741,157.167 66.321,157.167 50.312 L 157.167 35.833 154.917 35.833 L 152.667 35.833 152.665 49.958 M171.871 36.120 C 171.915 36.283,173.346 40.242,175.053 44.917 C 176.759 49.592,178.784 55.142,179.552 57.250 L 180.950 61.083 183.284 61.129 L 185.618 61.176 187.387 56.296 C 188.359 53.612,190.394 48.004,191.909 43.833 C 193.424 39.662,194.664 36.156,194.665 36.042 C 194.666 35.885,194.110 35.833,192.437 35.833 L 190.207 35.833 188.926 39.458 C 188.221 41.452,186.701 45.783,185.548 49.083 C 184.395 52.383,183.404 55.138,183.346 55.204 C 183.289 55.271,182.999 54.633,182.703 53.788 C 182.407 52.942,180.862 48.575,179.271 44.083 L 176.377 35.917 174.085 35.870 C 171.956 35.827,171.798 35.845,171.871 36.120 M274.379 44.042 C 274.458 52.902,274.505 53.432,275.433 55.740 C 277.880 61.833,286.534 63.805,291.968 59.509 L 292.833 58.826 292.833 59.996 L 292.833 61.167 294.833 61.167 L 296.833 61.167 296.833 48.500 L 296.833 35.833 294.596 35.833 L 292.359 35.833 292.288 43.625 C 292.208 52.390,292.153 52.863,291.018 54.618 C 288.398 58.668,281.726 58.234,279.804 53.889 C 279.110 52.321,279.012 51.003,279.006 43.208 L 279.000 35.833 276.653 35.833 L 274.306 35.833 274.379 44.042 M211.423 39.755 C 213.660 40.330,215.438 42.033,216.131 44.260 C 216.770 46.318,217.644 46.077,209.375 46.127 C 201.130 46.176,201.909 46.358,202.481 44.521 C 203.674 40.688,207.376 38.715,211.423 39.755 M335.590 39.755 C 338.260 40.442,340.027 42.485,340.738 45.708 L 340.840 46.167 333.587 46.167 C 325.295 46.167,326.077 46.352,326.647 44.521 C 327.840 40.688,331.543 38.715,335.590 39.755 " stroke="none" fill="#c46404" fill-rule="evenodd"></path><path id="path1" d="M0.000 50.000 L 0.000 100.000 200.000 100.000 L 400.000 100.000 400.000 50.000 L 400.000 0.000 200.000 0.000 L 0.000 0.000 0.000 50.000 M52.203 18.595 C 77.693 22.143,88.839 52.193,71.867 71.612 C 57.198 88.396,29.416 84.735,19.421 64.700 C 7.974 41.756,26.942 15.079,52.203 18.595 M44.833 23.266 C 44.604 23.307,43.742 23.459,42.917 23.603 C 38.666 24.345,33.314 26.909,30.374 29.611 L 29.498 30.417 46.923 48.417 C 56.507 58.317,65.025 67.092,65.852 67.917 L 67.357 69.417 68.240 68.455 C 81.233 54.314,75.168 30.973,56.844 24.595 C 53.619 23.472,47.477 22.793,44.833 23.266 M157.167 29.917 L 157.167 32.167 154.917 32.167 L 152.667 32.167 152.667 29.917 L 152.667 27.667 154.917 27.667 L 157.167 27.667 157.167 29.917 M262.167 32.333 L 262.167 35.833 265.917 35.833 L 269.667 35.833 269.667 37.750 L 269.667 39.667 265.917 39.667 L 262.167 39.667 262.167 46.939 C 262.167 51.906,262.227 54.413,262.357 54.846 C 262.963 56.869,265.062 57.751,268.380 57.376 L 269.676 57.229 269.630 59.232 L 269.583 61.236 268.917 61.390 C 265.863 62.098,261.688 61.281,259.889 59.624 C 257.799 57.696,257.507 56.059,257.503 46.208 L 257.500 39.667 254.750 39.667 L 252.000 39.667 252.000 37.750 L 252.000 35.833 254.750 35.833 L 257.500 35.833 257.500 32.333 L 257.500 28.833 259.833 28.833 L 262.167 28.833 262.167 32.333 M117.875 35.505 L 118.667 35.706 118.667 37.871 C 118.667 39.864,118.644 40.027,118.375 39.923 C 115.666 38.876,111.777 39.574,109.941 41.436 C 108.014 43.391,107.833 44.455,107.833 53.848 L 107.833 61.167 105.583 61.167 L 103.333 61.167 103.333 48.500 L 103.333 35.833 105.333 35.833 L 107.333 35.833 107.333 37.593 L 107.333 39.352 108.292 38.314 C 110.751 35.650,114.322 34.603,117.875 35.505 M212.971 35.662 C 218.425 37.208,221.645 42.010,221.663 48.625 L 221.667 49.833 211.814 49.833 L 201.962 49.833 202.079 50.792 C 202.538 54.539,204.743 56.951,208.208 57.496 C 211.037 57.941,214.157 56.629,215.360 54.488 C 215.562 54.128,215.775 53.833,215.832 53.833 C 215.937 53.833,220.214 55.658,220.292 55.736 C 220.315 55.760,219.965 56.305,219.514 56.948 C 214.443 64.169,202.474 63.339,198.627 55.500 C 196.014 50.175,196.939 42.422,200.632 38.686 C 203.636 35.648,208.615 34.428,212.971 35.662 M318.042 35.505 L 318.833 35.706 318.833 37.871 C 318.833 39.864,318.810 40.027,318.542 39.923 C 315.834 38.877,311.864 39.593,310.055 41.455 C 308.179 43.385,308.110 43.784,308.039 53.208 L 307.980 61.167 305.740 61.167 L 303.500 61.167 303.500 48.500 L 303.500 35.833 305.500 35.833 L 307.500 35.833 307.502 37.625 L 307.504 39.417 307.956 38.833 C 310.247 35.875,314.270 34.548,318.042 35.505 M337.138 35.662 C 342.408 37.156,345.436 41.408,345.776 47.792 L 345.885 49.833 336.026 49.833 L 326.167 49.833 326.167 50.281 C 326.167 57.232,336.012 60.369,339.520 54.534 C 339.724 54.195,339.913 53.888,339.939 53.854 C 340.059 53.696,344.480 55.732,344.382 55.900 C 339.308 64.614,325.821 63.680,322.263 54.368 C 320.255 49.113,321.397 42.133,324.833 38.653 C 327.798 35.650,332.803 34.434,337.138 35.662 M361.799 35.431 C 365.303 36.152,368.031 38.211,369.587 41.310 C 370.174 42.479,370.140 42.591,369.125 42.805 C 368.644 42.906,367.665 43.132,366.949 43.307 L 365.649 43.625 365.315 42.915 C 363.542 39.144,356.296 38.188,354.583 41.500 C 353.522 43.553,354.809 44.487,361.096 46.225 C 368.179 48.183,370.790 50.756,370.167 55.163 C 369.554 59.502,366.053 61.750,359.917 61.746 C 354.145 61.742,351.022 59.784,349.183 55.015 C 348.349 52.853,348.524 52.704,352.776 51.938 C 352.841 51.926,352.987 52.277,353.099 52.718 C 353.883 55.791,355.797 57.281,359.185 57.459 C 363.483 57.683,366.282 55.952,365.492 53.558 C 364.985 52.023,363.895 51.424,359.330 50.170 C 355.227 49.043,354.775 48.892,353.443 48.201 C 347.443 45.088,349.099 36.875,356.000 35.517 C 356.504 35.418,357.067 35.307,357.250 35.271 C 358.102 35.103,360.639 35.192,361.799 35.431 M137.757 35.589 C 141.464 36.541,144.160 39.206,145.206 42.950 C 145.552 44.192,145.571 44.627,145.627 52.708 L 145.686 61.167 143.441 61.167 L 141.195 61.167 141.122 53.458 C 141.043 45.154,140.992 44.622,140.101 42.872 C 138.081 38.902,131.655 38.545,129.191 42.266 C 127.956 44.131,127.932 44.328,127.870 53.208 L 127.816 61.167 125.491 61.167 L 123.167 61.167 123.167 48.500 L 123.167 35.833 125.250 35.833 L 127.333 35.833 127.333 37.005 L 127.333 38.177 128.208 37.524 C 130.797 35.590,134.691 34.801,137.757 35.589 M241.257 35.589 C 244.964 36.541,247.660 39.206,248.706 42.950 C 249.052 44.192,249.071 44.627,249.127 52.708 L 249.186 61.167 246.941 61.167 L 244.695 61.167 244.622 53.458 C 244.543 45.154,244.492 44.622,243.601 42.872 C 241.581 38.902,235.155 38.545,232.691 42.266 C 231.456 44.131,231.432 44.328,231.370 53.208 L 231.316 61.167 228.991 61.167 L 226.667 61.167 226.667 48.500 L 226.667 35.833 228.750 35.833 L 230.833 35.833 230.833 37.005 L 230.833 38.177 231.708 37.524 C 234.297 35.590,238.191 34.801,241.257 35.589 M157.167 50.312 C 157.167 66.321,157.143 66.741,156.144 68.772 C 154.887 71.323,152.035 73.167,149.342 73.167 L 148.833 73.167 148.833 70.833 L 148.833 68.500 149.292 68.487 C 150.364 68.458,151.560 67.678,152.082 66.669 C 152.608 65.652,152.664 64.040,152.665 49.958 L 152.667 35.833 154.917 35.833 L 157.167 35.833 157.167 50.312 M179.271 44.083 C 180.862 48.575,182.407 52.942,182.703 53.788 C 182.999 54.633,183.289 55.271,183.346 55.204 C 183.404 55.138,184.395 52.383,185.548 49.083 C 186.701 45.783,188.221 41.452,188.926 39.458 L 190.207 35.833 192.437 35.833 C 194.110 35.833,194.666 35.885,194.665 36.042 C 194.664 36.156,193.424 39.662,191.909 43.833 C 190.394 48.004,188.359 53.612,187.387 56.296 L 185.618 61.176 183.284 61.129 L 180.950 61.083 179.552 57.250 C 178.784 55.142,176.759 49.592,175.053 44.917 C 173.346 40.242,171.915 36.283,171.871 36.120 C 171.798 35.845,171.956 35.827,174.085 35.870 L 176.377 35.917 179.271 44.083 M279.006 43.208 C 279.012 51.003,279.110 52.321,279.804 53.889 C 281.726 58.234,288.398 58.668,291.018 54.618 C 292.153 52.863,292.208 52.390,292.288 43.625 L 292.359 35.833 294.596 35.833 L 296.833 35.833 296.833 48.500 L 296.833 61.167 294.833 61.167 L 292.833 61.167 292.833 59.996 L 292.833 58.826 291.968 59.509 C 286.534 63.805,277.880 61.833,275.433 55.740 C 274.505 53.432,274.458 52.902,274.379 44.042 L 274.306 35.833 276.653 35.833 L 279.000 35.833 279.006 43.208 M207.541 39.676 C 205.219 40.134,203.263 42.007,202.481 44.521 C 201.909 46.358,201.130 46.176,209.375 46.127 C 217.644 46.077,216.770 46.318,216.131 44.260 C 215.046 40.769,211.525 38.891,207.541 39.676 M331.708 39.676 C 329.386 40.134,327.430 42.007,326.647 44.521 C 326.077 46.352,325.295 46.167,333.587 46.167 L 340.840 46.167 340.738 45.708 C 339.718 41.087,336.261 38.778,331.708 39.676 " stroke="none" fill="#ffffff" fill-rule="evenodd"></path></g></svg>